<svg width="23" height="41" viewBox="0 0 23 41" fill="none" xmlns="http://www.w3.org/2000/svg">
<path d="M22.3141 20.8887C22.3148 21.193 22.2554 21.4945 22.1392 21.7758C22.0231 22.0571 21.8525 22.3127 21.6372 22.5279L3.95505 40.2101C3.52057 40.6446 2.93128 40.8887 2.31682 40.8887C1.70236 40.8887 1.11307 40.6446 0.678581 40.2101C0.244094 39.7756 -7.44125e-08 39.1863 -1.01271e-07 38.5719C-1.2813e-07 37.9574 0.244094 37.3681 0.678581 36.9336L16.7235 20.8887L0.67858 4.84373C0.244092 4.40924 -1.63244e-06 3.81995 -1.64718e-06 3.20549C-1.66193e-06 2.59103 0.244092 2.00174 0.67858 1.56725C1.11307 1.13276 1.70236 0.888672 2.31682 0.888672C2.93127 0.888672 3.52056 1.13276 3.95505 1.56725L21.6372 19.2514C21.8523 19.4663 22.0229 19.7216 22.139 20.0025C22.2552 20.2835 22.3147 20.5846 22.3141 20.8887Z" fill="#000"/>
</svg>
