<svg width="23" height="41" viewBox="0 0 23 41" fill="none" xmlns="http://www.w3.org/2000/svg">
<path d="M-0.000131369 20.8901C-0.000856165 20.5858 0.0585635 20.2843 0.174721 20.003C0.290879 19.7217 0.461487 19.4661 0.676728 19.2509L18.3589 1.56872C18.7934 1.13423 19.3827 0.890137 19.9971 0.890137C20.6116 0.890137 21.2009 1.13423 21.6354 1.56872C22.0699 2.0032 22.314 2.5925 22.314 3.20695C22.314 3.82141 22.0699 4.4107 21.6354 4.84519L5.59044 20.8901L21.6354 36.9351C22.0699 37.3696 22.314 37.9589 22.314 38.5733C22.314 39.1878 22.0699 39.7771 21.6354 40.2116C21.2009 40.646 20.6116 40.8901 19.9971 40.8901C19.3827 40.8901 18.7934 40.646 18.3589 40.2116L0.676728 22.5274C0.461636 22.3125 0.291113 22.0573 0.174958 21.7763C0.0588019 21.4953 -0.000701662 21.1942 -0.000131369 20.8901Z" fill="#000"/>
</svg>
